<?xml version="1.0" standalone="no"?>
<!DOCTYPE svg PUBLIC "-//W3C//DTD SVG 20010904//EN"
 "http://www.w3.org/TR/2001/REC-SVG-20010904/DTD/svg10.dtd">
<svg version="1.0" xmlns="http://www.w3.org/2000/svg"
 width="350.000000pt" height="350.000000pt" viewBox="0 0 350.000000 350.000000"
 preserveAspectRatio="xMidYMid meet">
<metadata>
Created by potrace 1.11, written by Peter Selinger 2001-2013
</metadata>
<g transform="translate(0.000000,350.000000) scale(0.100000,-0.100000)"
fill="#000000" stroke="none">
<path d="M1613 3318 c-142 -144 -293 -244 -429 -284 -78 -23 -210 -23 -288 0
-138 41 -267 125 -407 268 l-89 90 0 -1089 c0 -1067 0 -1090 20 -1162 29 -103
62 -170 130 -260 69 -91 135 -144 365 -295 94 -61 306 -200 470 -308 165 -109
305 -198 310 -198 11 0 91 58 595 430 175 129 337 246 360 260 96 57 195 195
242 335 l23 70 3 850 3 850 -1081 -1080 c-594 -594 -1086 -1081 -1094 -1083
-8 -2 -59 41 -113 95 -75 76 -108 118 -141 180 l-43 81 513 479 c1077 1005
1258 1175 1393 1303 171 163 260 246 372 343 61 54 131 121 154 150 30 36 11
21 -62 -49 -147 -143 -240 -202 -378 -244 -61 -19 -89 -22 -165 -18 -169 10
-303 82 -478 258 l-107 107 -78 -79z m-437 -482 c139 -12 224 -124 212 -279
-8 -97 -53 -168 -132 -209 -40 -20 -165 -37 -283 -38 l-63 0 0 -157 0 -158
-67 1 c-38 1 -76 2 -85 3 -17 1 -18 28 -18 421 l0 419 113 3 c121 3 241 1 323
-6z m1135 -1195 c99 -11 153 -34 187 -80 70 -96 68 -225 -5 -310 -29 -35 -66
-55 -142 -77 -10 -3 -6 -11 15 -26 16 -11 47 -44 70 -72 52 -66 176 -265 170
-274 -4 -7 -31 -7 -147 -3 l-45 1 -106 158 c-59 86 -117 163 -129 171 -13 7
-50 16 -83 18 l-61 5 -2 -123 c0 -68 -1 -148 -2 -176 l-1 -53 -85 0 -85 0 0
419 c0 326 3 420 13 424 24 8 353 7 438 -2z"/>
<path d="M910 2581 l0 -121 88 0 c109 0 154 12 186 51 42 50 31 130 -23 166
-20 13 -53 18 -138 21 l-113 4 0 -121z"/>
<path d="M2039 1493 c-1 -4 -2 -52 -3 -106 l-1 -98 142 3 c140 3 143 4 169 30
39 38 39 108 0 146 -26 26 -30 27 -166 30 -77 2 -140 0 -141 -5z"/>
</g>
</svg>
